<?xml version="1.0" encoding="UTF-8" standalone="no"?>
<svg
   xmlns:dc="http://purl.org/dc/elements/1.1/"
   xmlns:cc="http://creativecommons.org/ns#"
   xmlns:rdf="http://www.w3.org/1999/02/22-rdf-syntax-ns#"
   xmlns:svg="http://www.w3.org/2000/svg"
   xmlns="http://www.w3.org/2000/svg"
   xmlns:sodipodi="http://sodipodi.sourceforge.net/DTD/sodipodi-0.dtd"
   xmlns:inkscape="http://www.inkscape.org/namespaces/inkscape"
   height="16"
   viewBox="0 0 16 16"
   width="16"
   version="1.1"
   id="svg20"
   sodipodi:docname="icon_extended_shader.svg"
   inkscape:version="0.92.4 (5da689c313, 2019-01-14)">
  <metadata
     id="metadata26">
    <rdf:RDF>
      <cc:Work
         rdf:about="">
        <dc:format>image/svg+xml</dc:format>
        <dc:type
           rdf:resource="http://purl.org/dc/dcmitype/StillImage" />
        <dc:title />
      </cc:Work>
    </rdf:RDF>
  </metadata>
  <defs
     id="defs24" />
  <sodipodi:namedview
     pagecolor="#ffffff"
     bordercolor="#666666"
     borderopacity="1"
     objecttolerance="10"
     gridtolerance="10"
     guidetolerance="10"
     inkscape:pageopacity="0"
     inkscape:pageshadow="2"
     inkscape:window-width="1366"
     inkscape:window-height="706"
     id="namedview22"
     showgrid="false"
     inkscape:zoom="29.5"
     inkscape:cx="2.2384668"
     inkscape:cy="6.6818279"
     inkscape:window-x="-8"
     inkscape:window-y="-8"
     inkscape:window-maximized="1"
     inkscape:current-layer="g8" />
  <g
     fill="#e0e0e0"
     id="g8">
    <path
       d="m2 1c-.55226.0001-.99994.4477-1 1v7h2v-6h6v3c0 .554.44599 1 1 1h3v2h2v-3l-5-5z"
       id="path6" />
    <g
       aria-label="#"
       transform="scale(1.1097109,0.90113562)"
       style="font-style:normal;font-variant:normal;font-weight:bold;font-stretch:normal;font-size:9.61211395px;line-height:1.25;font-family:sans-serif;-inkscape-font-specification:'sans-serif, Bold';font-variant-ligatures:normal;font-variant-caps:normal;font-variant-numeric:normal;font-feature-settings:normal;text-align:start;letter-spacing:0px;word-spacing:0px;writing-mode:lr-tb;text-anchor:start;fill:#e0e0e0;fill-opacity:1;stroke:none;stroke-width:0.90113562"
       id="text4538">
      <path
         d="M 10.318769,13.07533 H 8.8356497 l -0.3660863,1.459652 h 1.323543 v 1.126419 H 8.1879585 L 7.7608577,17.32287 H 6.6297447 L 7.0474586,15.661401 H 5.8083971 L 5.3906831,17.32287 H 4.2407964 L 4.6632038,15.661401 H 3.3959817 v -1.126419 h 1.548827 L 5.3062017,13.07533 H 3.9310311 v -1.121727 h 1.6567755 l 0.4036336,-1.619228 h 1.1498867 l -0.4036337,1.619228 h 1.2343682 l 0.4083271,-1.619228 h 1.1498867 l -0.4083271,1.619228 h 1.1968209 z m -2.6095389,-0.0094 H 6.4513949 l -0.3754732,1.483119 h 1.2625287 z"
         style="fill:#e0e0e0;fill-opacity:1;stroke-width:0.90113562"
         id="path820" />
    </g>
  </g>
  <path
     d="m4 6h2v1h-2z"
     fill="#ffeb70"
     id="path10" />
  <path
     d="m8 8h4v1h-4z"
     fill="#9dff70"
     id="path12" />
  <path
     d="m7 6h1v1h-1z"
     fill="#70deff"
     id="path14" />
  <path
     d="m4 4h3v1h-3z"
     fill="#ff7070"
     id="path16" />
  <path
     d="m4 8h3v1h-3z"
     fill="#70ffb9"
     id="path18" />
</svg>
